HIERARCHY
ROOT Hips
{
	OFFSET 0.00000 0.00000 0.00000
	CHANNELS 6 Xposition Yposition Zposition Zrotation Yrotation Xrotation 
	JOINT LHipJoint
	{
		OFFSET 0 0 0
		CHANNELS 3 Zrotation Yrotation Xrotation
		JOINT LeftUpLeg
		{
			OFFSET 1.39187 -1.60231 0.69152
			CHANNELS 3 Zrotation Yrotation Xrotation
			JOINT LeftLeg
			{
				OFFSET 2.43314 -6.68499 0.00000
				CHANNELS 3 Zrotation Yrotation Xrotation
				JOINT LeftFoot
				{
					OFFSET 2.32059 -6.37578 0.00000
					CHANNELS 3 Zrotation Yrotation Xrotation
					JOINT LeftToeBase
					{
						OFFSET 0.23021 -0.63250 1.71305
						CHANNELS 3 Zrotation Yrotation Xrotation
						End Site
						{
							OFFSET 0.00000 -0.00000 0.91647
						}
					}
				}
			}
		}
	}
	JOINT RHipJoint
	{
		OFFSET 0 0 0
		CHANNELS 3 Zrotation Yrotation Xrotation
		JOINT RightUpLeg
		{
			OFFSET -1.19407 -1.60231 0.69152
			CHANNELS 3 Zrotation Yrotation Xrotation
			JOINT RightLeg
			{
				OFFSET -2.44411 -6.71513 0.00000
				CHANNELS 3 Zrotation Yrotation Xrotation
				JOINT RightFoot
				{
					OFFSET -2.31924 -6.37207 0.00000
					CHANNELS 3 Zrotation Yrotation Xrotation
					JOINT RightToeBase
					{
						OFFSET -0.19473 -0.53502 1.87724
						CHANNELS 3 Zrotation Yrotation Xrotation
						End Site
						{
							OFFSET -0.00000 -0.00000 0.98293
						}
					}
				}
			}
		}
	}
	JOINT LowerBack
	{
		OFFSET 0 0 0
		CHANNELS 3 Zrotation Yrotation Xrotation
		JOINT Spine
		{
			OFFSET -0.01120 1.87307 0.09613
			CHANNELS 3 Zrotation Yrotation Xrotation
			JOINT Spine1
			{
				OFFSET 0.01099 1.87818 0.04834
				CHANNELS 3 Zrotation Yrotation Xrotation
				JOINT Neck
				{
					OFFSET 0 0 0
					CHANNELS 3 Zrotation Yrotation Xrotation
					JOINT Neck1
					{
						OFFSET 0.01702 1.40324 -0.12579
						CHANNELS 3 Zrotation Yrotation Xrotation
						JOINT Head
						{
							OFFSET -0.04239 1.38587 -0.01614
							CHANNELS 3 Zrotation Yrotation Xrotation
							End Site
							{
								OFFSET -0.02510 1.47031 -0.00154
							}
						}
					}
				}
				JOINT LeftShoulder
				{
					OFFSET 0 0 0
					CHANNELS 3 Zrotation Yrotation Xrotation
					JOINT LeftArm
					{
						OFFSET 2.95699 0.62343 0.11653
						CHANNELS 3 Zrotation Yrotation Xrotation
						JOINT LeftForeArm
						{
							OFFSET 4.68382 -0.00000 -0.00000
							CHANNELS 3 Zrotation Yrotation Xrotation
							JOINT LeftHand
							{
								OFFSET 2.98124 -0.00000 -0.00000
								CHANNELS 3 Zrotation Yrotation Xrotation
								JOINT LeftFingerBase
								{
									OFFSET 0 0 0
									CHANNELS 3 Zrotation Yrotation Xrotation
									JOINT LeftHandIndex1
									{
										OFFSET 0.70759 -0.00000 0.00000
										CHANNELS 3 Zrotation Yrotation Xrotation
										End Site
										{
											OFFSET 0.57048 -0.00000 0.00000
										}
									}
								}
								JOINT LThumb
								{
									OFFSET 0 0 0
									CHANNELS 3 Zrotation Yrotation Xrotation
									End Site
									{
										OFFSET 0.57919 -0.00000 0.57919
									}
								}
							}
						}
					}
				}
				JOINT RightShoulder
				{
					OFFSET 0 0 0
					CHANNELS 3 Zrotation Yrotation Xrotation
					JOINT RightArm
					{
						OFFSET -2.99027 0.88714 -0.02793
						CHANNELS 3 Zrotation Yrotation Xrotation
						JOINT RightForeArm
						{
							OFFSET -4.75876 -0.00000 -0.00000
							CHANNELS 3 Zrotation Yrotation Xrotation
							JOINT RightHand
							{
								OFFSET -2.93293 -0.00000 -0.00000
								CHANNELS 3 Zrotation Yrotation Xrotation
								JOINT RightFingerBase
								{
									OFFSET 0 0 0
									CHANNELS 3 Zrotation Yrotation Xrotation
									JOINT RightHandIndex1
									{
										OFFSET -0.83175 -0.00000 0.00000
										CHANNELS 3 Zrotation Yrotation Xrotation
										End Site
										{
											OFFSET -0.67058 -0.00000 0.00000
										}
									}
								}
								JOINT RThumb
								{
									OFFSET 0 0 0
									CHANNELS 3 Zrotation Yrotation Xrotation
									End Site
									{
										OFFSET -0.68082 -0.00000 0.68082
									}
								}
							}
						}
					}
				}
			}
		}
	}
}
MOTION
Frames: 14
Frame Time: .0083333
31.8401 16.0394 -1.0275 130.7310 -87.6297 -115.0320 0.0000 0.0000 0.0000 -28.0416 -9.3819 3.2415 1.5987 7.9748 22.6376 1.0140 -3.1931 -18.2300 0.0116 -0.6948 -1.9095 0.0000 0.0000 0.0000 10.5806 24.8133 -38.9280 -0.7040 -5.3629 14.9467 -0.0025 -2.2167 -3.3461 -0.1823 2.7501 -7.5838 -6.3899 -1.2472 -12.2423 1.3443 -1.0755 -3.6584 4.8603 -0.6065 3.1454 -3.8406 0.5114 5.3305 5.3569 0.8179 -10.6143 2.2304 0.2365 -4.0758 -0.0000 -0.0000 0.0000 -94.1180 -14.5675 19.2077 14.7873 -23.8490 -3.1394 -0.0000 -0.0000 25.9446 10.4561 20.5050 3.6987 -7.1250 0.0000 -0.0000 -17.8379 49.9405 -2.2354 -0.0000 -0.0000 0.0000 90.5275 -4.3083 4.4349 -11.1732 18.5533 -1.8307 0.0000 0.0000 21.0199 -12.6904 9.2518 -2.0734 7.1250 -0.0000 -0.0000 10.1946 -20.5669 6.0587
31.6390 16.0536 -1.0395 125.0830 -87.7809 -109.1500 0.0000 0.0000 0.0000 -27.8622 -9.1353 3.5329 1.6002 7.9783 22.6482 0.8777 -4.0235 -16.8071 0.0077 -0.5656 -1.5543 0.0000 0.0000 0.0000 10.7638 24.5790 -39.4548 -0.8548 -5.8963 16.4840 0.0086 -2.7328 -3.3204 -0.2523 3.2322 -8.9259 -6.3274 -1.2910 -12.2575 1.3408 -1.1711 -4.0979 4.8087 -0.6364 2.7017 -3.7947 0.4270 5.3657 5.3076 0.6965 -10.1810 2.2107 0.1835 -3.9444 0.0000 -0.0000 0.0000 -94.1977 -13.3765 18.6290 14.6020 -23.5887 -3.0649 -0.0000 -0.0000 27.1006 10.7372 19.6676 3.6517 -7.1250 0.0000 -0.0000 -17.2200 49.1788 -1.8235 0.0000 -0.0000 0.0000 90.6435 -4.9753 3.3428 -10.9814 18.2598 -1.7701 0.0000 0.0000 21.8491 -12.7044 8.8292 -1.9818 7.1250 -0.0000 -0.0000 10.2029 -20.9920 5.9643
31.4359 16.0755 -1.0542 117.6410 -88.0441 -101.3650 0.0000 0.0000 0.0000 -27.4891 -9.0109 3.6295 1.6217 8.0292 22.8027 0.7225 -4.7206 -15.1579 0.0140 -0.7630 -2.0970 0.0000 0.0000 0.0000 10.8876 24.4962 -39.9913 -0.9825 -6.3093 17.6846 0.0240 -3.2609 -3.0531 -0.2912 3.4704 -9.5913 -6.0961 -1.4252 -13.0544 1.3298 -1.3343 -4.1196 4.6317 -0.7347 3.1297 -3.7216 0.3834 5.2873 5.0925 0.6105 -9.8100 2.3682 0.1686 -4.2360 0.0000 0.0000 0.0000 -94.2382 -12.9216 17.5110 14.2080 -23.0313 -2.9090 -0.0000 -0.0000 28.5568 9.5669 19.7628 3.2617 -7.1250 0.0000 -0.0000 -18.3489 49.0982 -1.9130 0.0000 0.0000 0.0000 90.8868 -4.9025 2.1050 -10.7301 17.8734 -1.6922 0.0000 0.0000 22.8767 -12.9223 8.5571 -1.9553 7.1250 -0.0000 -0.0000 10.0590 -21.2571 5.8162
31.2307 16.1023 -1.0690 113.0870 -88.4066 -96.5147 0.0000 0.0000 0.0000 -26.9039 -8.6977 3.4948 1.6892 8.1862 23.2811 0.5650 -5.5845 -13.3987 0.0219 -0.9544 -2.6232 0.0000 0.0000 0.0000 11.3987 24.3027 -40.1982 -1.0733 -6.5856 18.4933 0.0288 -3.3678 -2.8407 -0.3275 3.6782 -10.1731 -5.7300 -1.4396 -13.2405 1.3780 -1.4233 -4.5467 4.4610 -0.7684 2.7859 -3.6787 0.3353 5.5003 5.0619 0.5400 -9.5317 2.3502 0.1354 -4.1741 -0.0000 0.0000 0.0000 -94.3186 -11.7701 16.3694 13.7827 -22.4231 -2.7447 -0.0000 -0.0000 29.7602 8.6739 19.8807 2.9697 -7.1250 0.0000 -0.0000 -19.2272 49.0797 -2.0017 -0.0000 0.0000 0.0000 91.0628 -5.4615 0.5250 -10.4911 17.5041 -1.6195 0.0000 0.0000 23.9478 -12.9060 8.4435 -1.9270 7.1250 -0.0000 -0.0000 10.0759 -21.3724 5.7995
31.0180 16.1244 -1.0889 110.4830 -88.6879 -93.7087 0.0000 0.0000 0.0000 -26.3037 -8.0753 3.1341 1.8050 8.4474 24.0815 0.4185 -6.7396 -11.7420 0.0243 -1.0069 -2.7679 0.0000 0.0000 0.0000 11.9657 24.1899 -40.0398 -1.1387 -6.7768 19.0558 0.0340 -3.4871 -2.5625 -0.3580 3.8438 -10.6378 -5.6600 -1.5312 -14.0740 1.5558 -1.5141 -4.4514 4.5828 -0.8337 3.3511 -3.9297 0.4006 5.2523 5.1969 0.6212 -9.4543 2.4356 0.1813 -4.1062 -0.0000 -0.0000 0.0000 -94.5620 -11.3446 15.2224 13.3495 -21.7972 -2.5816 -0.0000 -0.0000 30.8425 9.8669 18.8879 3.2226 -7.1250 0.0000 -0.0000 -17.7101 48.3048 -1.4872 -0.0000 -0.0000 0.0000 90.9937 -5.1515 -1.5056 -10.1032 16.9008 -1.5048 0.0000 0.0000 25.4593 -12.6247 8.9517 -1.9960 7.1250 -0.0000 -0.0000 10.2544 -20.8719 6.0237
30.8102 16.1406 -1.1050 104.5930 -88.9948 -87.6398 0.0000 0.0000 0.0000 -25.6654 -7.3492 2.6322 1.9537 8.7689 25.0750 0.2589 -7.7754 -9.8650 0.0297 -1.1121 -3.0573 0.0000 0.0000 0.0000 12.6996 23.8278 -39.8526 -1.2004 -6.9516 19.5719 0.0288 -3.1783 -2.2460 -0.3851 3.9852 -11.0349 -5.3257 -1.5713 -14.4142 1.6129 -1.6112 -4.5943 4.4324 -0.8844 3.3901 -3.9812 0.4613 4.7033 5.2252 0.7045 -8.9571 2.4360 0.2322 -3.8264 -0.0000 0.0000 0.0000 -94.5607 -10.4963 14.2530 12.9631 -21.2331 -2.4399 -0.0000 -0.0000 31.7453 12.8582 16.9181 3.8003 -7.1250 0.0000 -0.0000 -14.2373 46.7965 -0.6439 -0.0000 0.0000 0.0000 91.1492 -5.2812 -3.2282 -9.7431 16.3368 -1.4018 0.0000 0.0000 26.7476 -12.6410 9.7760 -2.1809 7.1250 -0.0000 -0.0000 10.2085 -20.0413 6.1898
30.6022 16.1620 -1.1209 93.9024 -89.3664 -76.7720 0.0000 0.0000 0.0000 -24.8939 -6.6781 1.9677 2.1286 9.1290 26.1997 0.0804 -8.7115 -7.5399 0.0146 -0.7794 -2.1421 0.0000 0.0000 0.0000 13.5896 23.3993 -39.5634 -1.2616 -7.1200 20.0713 0.0162 -2.6115 -2.3541 -0.3839 3.9789 -11.0174 -4.9373 -1.5963 -14.8514 1.7139 -1.6956 -4.7150 4.2975 -0.9315 3.5021 -3.9727 0.3850 4.3027 5.1200 0.5925 -8.3253 2.3880 0.1906 -3.5186 -0.0000 0.0000 0.0000 -94.6235 -9.5472 13.1433 12.5546 -20.6312 -2.2940 -0.0000 -0.0000 32.5604 13.8116 16.7084 4.0429 -7.1250 0.0000 -0.0000 -13.2939 46.7137 -0.5721 -0.0000 0.0000 0.0000 91.2913 -5.3879 -4.7760 -9.4184 15.8248 -1.3119 0.0000 0.0000 27.8449 -12.8162 10.0203 -2.2668 7.1250 -0.0000 -0.0000 10.0753 -19.7868 6.1649
30.3946 16.1903 -1.1355 83.1878 -89.6436 -66.0316 0.0000 0.0000 0.0000 -24.1946 -5.8602 1.2488 2.3220 9.5068 27.3939 -0.1070 -9.6435 -4.7054 0.0012 0.2232 0.6132 0.0000 0.0000 0.0000 14.4390 22.9720 -39.0197 -1.3229 -7.2844 20.5607 0.0022 -2.1016 -2.8149 -0.3432 3.7645 -10.4150 -4.7456 -1.5596 -14.8930 1.8630 -1.7016 -5.0221 4.3478 -0.9278 3.1998 -4.1863 0.4305 4.5473 5.2347 0.6385 -8.0928 2.4635 0.2161 -3.4920 0.0000 -0.0000 0.0000 -94.8878 -8.1632 11.8730 12.1462 -20.0236 -2.1521 -0.0000 -0.0000 33.4418 9.2937 20.2552 3.2425 -7.1250 0.0000 -0.0000 -18.8157 49.5265 -2.1688 0.0000 -0.0000 0.0000 91.3036 -5.7329 -6.7994 -9.0837 15.2937 -1.2221 0.0000 0.0000 29.0571 -12.9306 9.9108 -2.2630 7.1250 -0.0000 -0.0000 9.9984 -19.8913 6.0926
30.1920 16.2188 -1.1486 98.7594 -89.7436 -81.6063 0.0000 0.0000 0.0000 -23.7386 -4.8361 0.4508 2.5230 9.8796 28.5876 -0.2632 -10.3506 -1.5676 0.0319 1.1538 3.1722 0.0000 0.0000 0.0000 15.0719 22.5041 -38.5276 -1.3906 -7.4608 21.0878 -0.0179 -1.3958 -3.4408 -0.3463 3.7813 -10.4622 -4.5603 -1.5176 -15.2698 1.8384 -1.6596 -5.0111 4.2179 -0.9146 3.4042 -4.2286 0.5007 4.5977 5.2632 0.7313 -8.1353 2.4784 0.2615 -3.5228 -0.0000 0.0000 0.0000 -94.9200 -7.4195 10.3073 11.6132 -19.2220 -1.9731 -0.0000 -0.0000 34.7619 9.5524 20.5697 3.3837 -7.1250 0.0000 -0.0000 -18.7132 49.8643 -2.3159 -0.0000 0.0000 0.0000 91.4735 -5.5053 -9.2183 -8.6897 14.6645 -1.1203 0.0000 0.0000 30.6519 -13.0883 9.8844 -2.2854 7.1250 -0.0000 -0.0000 9.8877 -19.9103 6.0188
29.9899 16.2448 -1.1630 123.5400 -89.7602 -106.4640 0.0000 0.0000 0.0000 -23.3621 -3.8531 -0.2596 2.7407 10.2629 29.8324 -0.3416 -10.5259 1.5255 0.0566 1.5350 4.2222 0.0000 0.0000 0.0000 15.6509 21.9957 -37.9797 -1.4599 -7.6365 21.6155 -0.0429 -0.6738 -4.2227 -0.4042 4.0815 -11.3062 -4.5822 -1.4988 -15.2142 1.9135 -1.6504 -5.2022 4.3145 -0.9048 3.1732 -3.9046 0.4230 4.3403 4.6908 0.6058 -7.6389 2.2173 0.2186 -3.2820 0.0000 -0.0000 0.0000 -95.1250 -6.3749 8.4604 11.1100 -18.4567 -1.8106 -0.0000 -0.0000 36.2976 9.4855 20.9721 3.4223 -7.1250 0.0000 -0.0000 -18.9572 50.2364 -2.5263 0.0000 -0.0000 0.0000 91.4617 -5.7533 -10.9634 -8.4464 14.2739 -1.0595 0.0000 0.0000 31.5701 -13.2951 9.5087 -2.2355 7.1250 -0.0000 -0.0000 9.7542 -20.2797 5.8531
29.7862 16.2697 -1.1789 162.2780 -89.7570 -145.4170 0.0000 0.0000 0.0000 -22.9230 -2.8909 -0.9011 2.9950 10.6869 31.2311 -0.3341 -10.2144 4.6146 0.0397 1.2859 3.5357 0.0000 0.0000 0.0000 16.3964 21.3518 -37.2701 -1.5280 -7.8047 22.1225 -0.0496 -0.0130 -4.2092 -0.7182 5.4154 -15.0973 -4.5062 -1.4235 -15.1787 1.9375 -1.5701 -5.2818 4.3124 -0.8627 3.0603 -3.9745 0.4968 4.8963 4.7603 0.6981 -8.0277 2.2609 0.2568 -3.5309 0.0000 0.0000 0.0000 -95.2594 -5.3704 6.7323 10.6989 -17.8253 -1.6826 -0.0000 -0.0000 37.5374 9.2235 21.5800 3.4179 -7.1250 0.0000 -0.0000 -19.4864 50.7710 -2.8646 0.0000 0.0000 0.0000 91.5640 -6.0133 -12.0240 -8.3344 14.0935 -1.0320 0.0000 0.0000 31.3814 -13.5610 8.5957 -2.0647 7.1250 -0.0000 -0.0000 9.5992 -21.1914 5.5571
29.5866 16.2966 -1.1932 182.5660 -89.5792 -165.8450 0.0000 0.0000 0.0000 -22.5439 -1.9444 -1.8461 3.3095 11.1800 32.8895 -0.2520 -9.7312 7.8702 0.0298 1.1144 3.0637 0.0000 0.0000 0.0000 17.1469 20.5633 -36.6778 -1.5911 -7.9566 22.5824 -0.0763 0.5736 -5.0426 -0.6271 5.0672 -14.1003 -4.4097 -1.2928 -15.6323 1.8875 -1.3829 -5.0792 4.2320 -0.7822 3.4947 -3.8884 0.4337 4.9623 4.6961 0.6161 -8.2027 2.2302 0.2142 -3.5987 0.0000 -0.0000 0.0000 -95.3514 -4.8903 4.7814 10.2614 -17.1474 -1.5511 -0.0000 -0.0000 39.0145 8.9302 21.9688 3.3642 -7.1250 0.0000 -0.0000 -19.9502 51.0908 -3.0986 0.0000 -0.0000 0.0000 91.7448 -5.9246 -12.3911 -8.3367 14.0972 -1.0326 0.0000 0.0000 30.1535 -13.6543 7.5714 -1.8334 7.1250 -0.0000 -0.0000 9.5763 -22.2254 5.3153
29.3953 16.3210 -1.2063 180.3470 -89.4932 -163.5410 0.0000 0.0000 0.0000 -22.2553 -1.3865 -3.0382 3.6483 11.6771 34.5990 -0.0838 -9.0285 11.1959 0.0391 1.2768 3.5108 0.0000 0.0000 0.0000 17.6738 19.7638 -36.3960 -1.6542 -8.1053 23.0343 -0.1140 1.2100 -6.0661 -0.5410 4.7126 -13.0905 -4.3535 -1.1382 -15.5577 1.7870 -1.2053 -5.3735 4.1285 -0.6868 3.1209 -3.9927 0.3124 4.9982 4.8373 0.4502 -7.8435 2.2996 0.1321 -3.4749 0.0000 -0.0000 0.0000 -95.4232 -3.7584 2.6232 9.8576 -16.5165 -1.4342 -0.0000 -0.0000 40.8394 8.7566 22.0824 3.3141 -7.1250 0.0000 -0.0000 -20.1698 51.1696 -3.1753 0.0000 -0.0000 0.0000 91.9922 -6.5533 -12.3950 -8.4943 14.3510 -1.0713 0.0000 0.0000 28.2911 -13.4001 6.6952 -1.5910 7.1250 -0.0000 -0.0000 9.8055 -23.1214 5.2421
29.2161 16.3386 -1.2099 191.5510 -89.1607 -174.1250 0.0000 0.0000 0.0000 -21.9524 -1.2326 -4.9638 4.0749 12.2594 36.6560 0.1681 -7.9341 14.2760 0.0712 1.7217 4.7371 0.0000 0.0000 0.0000 18.1232 19.2841 -36.6842 -1.6972 -8.2047 23.3376 -0.1454 2.1979 -6.7751 -0.5319 4.6732 -12.9788 -3.8929 -0.8969 -16.2942 1.6542 -0.9452 -5.5225 3.7689 -0.5708 3.3222 -4.1115 0.2236 4.7436 4.9556 0.3339 -7.6525 2.3612 0.0767 -3.3560 0.0000 -0.0000 0.0000 -95.4262 -3.2062 -0.2323 9.3804 -15.7646 -1.3015 -0.0000 -0.0000 43.2085 8.5983 22.0529 3.2493 -7.1250 0.0000 -0.0000 -20.3046 51.1164 -3.1707 0.0000 -0.0000 0.0000 92.2599 -6.5372 -12.7629 -8.5684 14.4700 -1.0898 0.0000 0.0000 26.7752 -13.0218 5.8214 -1.3437 7.1250 -0.0000 -0.0000 10.1342 -24.0153 5.2112
